<svg xmlns="http://www.w3.org/2000/svg" viewBox="0 0 900 1100">
  <rect width="900" height="1100" fill="#eef6ff"/>
  <g stroke="#2563eb" stroke-width="2" opacity=".28">
    <path d="M0 180 H900 M0 360 H900 M0 540 H900 M0 720 H900 M0 900 H900"/>
    <path d="M150 0 V1100 M300 0 V1100 M450 0 V1100 M600 0 V1100 M750 0 V1100"/>
  </g>
  <rect x="150" y="170" width="600" height="760" rx="36" fill="#d8e4ff" stroke="#7c3aed" stroke-width="8"/>
  <circle cx="450" cy="430" r="160" fill="#f1c6b8"/>
  <path d="M290 420 C325 265 574 265 610 420 C520 382 380 382 290 420 Z" fill="#140f2d"/>
  <circle cx="392" cy="438" r="12" fill="#140f2d"/>
  <circle cx="508" cy="438" r="12" fill="#140f2d"/>
  <path d="M410 520 C448 540 490 540 526 520" fill="none" stroke="#7c3aed" stroke-width="10" stroke-linecap="round"/>
  <path d="M255 900 C300 690 600 690 645 900 Z" fill="#2563eb"/>
  <rect x="205" y="220" width="160" height="42" fill="#06b6d4" opacity=".72"/>
  <rect x="535" y="812" width="155" height="42" fill="#7c3aed" opacity=".72"/>
  <text x="100" y="1018" fill="#140f2d" font-family="monospace" font-size="32" letter-spacing="6">DIGITAL ARCHIVE</text>
</svg>
